https://github.com/MJUOOTD/ootd_project/issues/1
<mxfile host="app.diagrams.net" agent="Mozilla/5.0 (Windows NT 10.0; Win64; x64) AppleWebKit/537.36 (KHTML, like Gecko) Chrome/140.0.0.0 Safari/537.36" version="28.2.1">
  <diagram name="유스케이스 다이어그램" id="jxm8MkvuLAA4xSrs_HQD">
    <mxGraphModel dx="3159" dy="2114" grid="0" gridSize="10" guides="1" tooltips="1" connect="1" arrows="1" fold="1" page="0" pageScale="1" pageWidth="827" pageHeight="1169" math="0" shadow="0">
      <root>
        <mxCell id="0" />
        <mxCell id="1" parent="0" />
        <mxCell id="TgKO2zQPtlV1gfP_I9yW-1" value="" style="rounded=0;whiteSpace=wrap;html=1;" parent="1" vertex="1">
          <mxGeometry x="-1061" y="-1156" width="1240" height="776" as="geometry" />
        </mxCell>
        <mxCell id="TgKO2zQPtlV1gfP_I9yW-33" style="edgeStyle=orthogonalEdgeStyle;rounded=0;orthogonalLoop=1;jettySize=auto;html=1;entryX=0;entryY=0.5;entryDx=0;entryDy=0;" parent="1" source="12deDF3FluKyyhdCnVvT-1" target="TgKO2zQPtlV1gfP_I9yW-6" edge="1">
          <mxGeometry relative="1" as="geometry" />
        </mxCell>
        <mxCell id="12deDF3FluKyyhdCnVvT-1" value="사용자" style="shape=umlActor;verticalLabelPosition=bottom;verticalAlign=top;html=1;outlineConnect=0;" parent="1" vertex="1">
          <mxGeometry x="-1041" y="-930" width="30" height="60" as="geometry" />
        </mxCell>
        <mxCell id="TgKO2zQPtlV1gfP_I9yW-4" value="" style="rounded=0;whiteSpace=wrap;html=1;" parent="1" vertex="1">
          <mxGeometry x="-739" y="-1086" width="203" height="237" as="geometry" />
        </mxCell>
        <mxCell id="TgKO2zQPtlV1gfP_I9yW-6" value="" style="rounded=0;whiteSpace=wrap;html=1;" parent="1" vertex="1">
          <mxGeometry x="-739" y="-676" width="311" height="237" as="geometry" />
        </mxCell>
        <mxCell id="TgKO2zQPtlV1gfP_I9yW-7" value="" style="rounded=0;whiteSpace=wrap;html=1;" parent="1" vertex="1">
          <mxGeometry x="-372" y="-1086" width="306" height="334" as="geometry" />
        </mxCell>
        <mxCell id="TgKO2zQPtlV1gfP_I9yW-8" value="회원가입" style="ellipse;whiteSpace=wrap;html=1;" parent="1" vertex="1">
          <mxGeometry x="-697" y="-1020" width="112" height="69" as="geometry" />
        </mxCell>
        <mxCell id="TgKO2zQPtlV1gfP_I9yW-9" value="▣&amp;nbsp;&lt;b&gt;사용자 관리&lt;/b&gt;" style="text;html=1;align=center;verticalAlign=middle;whiteSpace=wrap;rounded=0;" parent="1" vertex="1">
          <mxGeometry x="-723" y="-1070" width="92" height="30" as="geometry" />
        </mxCell>
        <mxCell id="TgKO2zQPtlV1gfP_I9yW-10" value="&lt;b&gt;▣ 개인화 설정&lt;/b&gt;" style="text;html=1;align=center;verticalAlign=middle;whiteSpace=wrap;rounded=0;" parent="1" vertex="1">
          <mxGeometry x="-723" y="-658" width="76.5" height="30" as="geometry" />
        </mxCell>
        <mxCell id="TgKO2zQPtlV1gfP_I9yW-11" value="&lt;b&gt;▣ 핵심 추천 기능&lt;/b&gt;" style="text;html=1;align=center;verticalAlign=middle;whiteSpace=wrap;rounded=0;" parent="1" vertex="1">
          <mxGeometry x="-360" y="-1070" width="98" height="30" as="geometry" />
        </mxCell>
        <mxCell id="TgKO2zQPtlV1gfP_I9yW-13" value="로그인/로그아웃" style="ellipse;whiteSpace=wrap;html=1;" parent="1" vertex="1">
          <mxGeometry x="-697" y="-939" width="112" height="69" as="geometry" />
        </mxCell>
        <mxCell id="TgKO2zQPtlV1gfP_I9yW-15" value="앱 실행" style="ellipse;whiteSpace=wrap;html=1;" parent="1" vertex="1">
          <mxGeometry x="-351" y="-1020" width="112" height="69" as="geometry" />
        </mxCell>
        <mxCell id="TgKO2zQPtlV1gfP_I9yW-16" value="위치 정보 제공 동의" style="ellipse;whiteSpace=wrap;html=1;" parent="1" vertex="1">
          <mxGeometry x="-349" y="-939" width="112" height="69" as="geometry" />
        </mxCell>
        <mxCell id="TgKO2zQPtlV1gfP_I9yW-17" value="&lt;div&gt;현재 위치 날씨 조회&lt;/div&gt;" style="ellipse;whiteSpace=wrap;html=1;" parent="1" vertex="1">
          <mxGeometry x="-349" y="-858" width="112" height="69" as="geometry" />
        </mxCell>
        <mxCell id="TgKO2zQPtlV1gfP_I9yW-18" value="&lt;div&gt;옷차림 추천&lt;/div&gt;" style="ellipse;whiteSpace=wrap;html=1;" parent="1" vertex="1">
          <mxGeometry x="-205" y="-1020" width="112" height="69" as="geometry" />
        </mxCell>
        <mxCell id="TgKO2zQPtlV1gfP_I9yW-19" value="&lt;div&gt;추천 메시지 확인&lt;/div&gt;" style="ellipse;whiteSpace=wrap;html=1;" parent="1" vertex="1">
          <mxGeometry x="-205" y="-939" width="112" height="69" as="geometry" />
        </mxCell>
        <mxCell id="TgKO2zQPtlV1gfP_I9yW-20" value="&lt;div&gt;날씨 정보 새로고침&lt;/div&gt;" style="ellipse;whiteSpace=wrap;html=1;" parent="1" vertex="1">
          <mxGeometry x="-205" y="-858" width="112" height="69" as="geometry" />
        </mxCell>
        <mxCell id="TgKO2zQPtlV1gfP_I9yW-21" value="&lt;div&gt;개인 설정 관리&lt;/div&gt;" style="ellipse;whiteSpace=wrap;html=1;" parent="1" vertex="1">
          <mxGeometry x="-705" y="-612" width="112" height="69" as="geometry" />
        </mxCell>
        <mxCell id="TgKO2zQPtlV1gfP_I9yW-22" value="&lt;div&gt;성별 설정&lt;/div&gt;" style="ellipse;whiteSpace=wrap;html=1;" parent="1" vertex="1">
          <mxGeometry x="-705" y="-533" width="112" height="69" as="geometry" />
        </mxCell>
        <mxCell id="TgKO2zQPtlV1gfP_I9yW-23" value="&lt;div&gt;추위/더위 민감도 설정&lt;/div&gt;" style="ellipse;whiteSpace=wrap;html=1;" parent="1" vertex="1">
          <mxGeometry x="-579" y="-612" width="116" height="71" as="geometry" />
        </mxCell>
        <mxCell id="TgKO2zQPtlV1gfP_I9yW-29" style="edgeStyle=orthogonalEdgeStyle;rounded=0;orthogonalLoop=1;jettySize=auto;html=1;entryX=0.01;entryY=0.785;entryDx=0;entryDy=0;entryPerimeter=0;" parent="1" source="12deDF3FluKyyhdCnVvT-1" target="TgKO2zQPtlV1gfP_I9yW-4" edge="1">
          <mxGeometry relative="1" as="geometry" />
        </mxCell>
        <mxCell id="TgKO2zQPtlV1gfP_I9yW-35" value="" style="endArrow=classic;html=1;rounded=0;entryX=-0.004;entryY=0.85;entryDx=0;entryDy=0;entryPerimeter=0;" parent="1" target="TgKO2zQPtlV1gfP_I9yW-7" edge="1">
          <mxGeometry width="50" height="50" relative="1" as="geometry">
            <mxPoint x="-876" y="-802" as="sourcePoint" />
            <mxPoint x="-872" y="-789" as="targetPoint" />
          </mxGeometry>
        </mxCell>
        <mxCell id="TgKO2zQPtlV1gfP_I9yW-36" value="앱(시스템)" style="text;strokeColor=none;align=center;fillColor=none;html=1;verticalAlign=middle;whiteSpace=wrap;rounded=0;" parent="1" vertex="1">
          <mxGeometry x="-1061" y="-1188" width="60" height="30" as="geometry" />
        </mxCell>
      </root>
    </mxGraphModel>
  </diagram>
</mxfile>
